<?xml version="1.0" encoding="utf-8"?>
<!-- Generator: Adobe Illustrator 16.0.0, SVG Export Plug-In . SVG Version: 6.00 Build 0)  -->
<!DOCTYPE svg PUBLIC "-//W3C//DTD SVG 1.1//EN" "http://www.w3.org/Graphics/SVG/1.1/DTD/svg11.dtd">
<svg version="1.1" id="Layer_1" xmlns="http://www.w3.org/2000/svg" xmlns:xlink="http://www.w3.org/1999/xlink" x="0px" y="0px"
	 width="9371.747px" height="446.292px" viewBox="0 0 9371.747 446.292" enable-background="new 0 0 9371.747 446.292"
	 xml:space="preserve">
<path fill="none" stroke="#151515" stroke-miterlimit="10" d="M0,445.399h1724.759c0,0,139,10,230-71s296-263,516-193
	c220,70,418.684,85,641.667,85c0,0,234.667,3.334,341.334-33.334c106.667-36.667,166.001-62.314,208.667-98.49
	c42.666-36.176,93.197-63.975,256.53-55.308s368.137,35.131,536.137,13.797c0,0,124.319-25.438,134.378-28.89
	c151.953-52.158,319.293-76.343,576.746-57.102C5423.669,26.313,6252.112,134.93,6752.63,85.277s743.588-70.756,1052.814-50.896
	c309.229,19.861,209.99,153.927,1566.279,217.236"/>
</svg>
