<?xml version="1.0" encoding="utf-8"?>
<!-- Generator: Adobe Illustrator 16.0.0, SVG Export Plug-In . SVG Version: 6.00 Build 0)  -->
<!DOCTYPE svg PUBLIC "-//W3C//DTD SVG 1.1//EN" "http://www.w3.org/Graphics/SVG/1.1/DTD/svg11.dtd">
<svg version="1.1" id="Layer_1" xmlns="http://www.w3.org/2000/svg" xmlns:xlink="http://www.w3.org/1999/xlink" x="0px" y="0px"
	 width="5792px" height="768px" viewBox="0 0 5792 768" enable-background="new 0 0 5792 768" xml:space="preserve">
<path fill="#EE2B74" d="M5704.3,647.197c-8.032,2.59-340.015,29.795-557.767-41.457s-747.854-51.82-972.745,75.141
	c-224.892,126.957-1181.572-138.619-1440.376-220.236c-258.804-81.616-560.443,3.887-738.037,155.461
	c-177.593,151.572-429.257-120.482-582.754-208.576c-153.498-88.094-272.19-193.029-462.277-47.934
	C760.257,504.691,677.262,332.39,594.266,214.5C511.27,96.61,505.023,97.905,432.736,64.222
	C360.45,30.539,110.224,34.673,110.224,34.673H54.186v8.772h56.183c0,0,250-21.331,360,47.335s212.666,266.666,229.333,290.666
	s99.334,116,240.667,2.667c141.333-113.334,252.001-94,300.667-66s281.335,160,396.668,260.666
	c115.333,100.668,257.333,136.002,389.333,27.334c132-108.666,388-195.999,526-167.998c138,28,517.333,123.332,776.667,189.332
	s716.695,136.006,860.001,64c143.306-72.004,471.333-148,736.665-114.666c265.334,33.334,272.666,51.334,409.334,76.666
	c136.666,25.334,368.597,4.668,368.597,4.668V647.197z"/>
</svg>
