<?xml version="1.0" encoding="utf-8"?>
<!-- Generator: Adobe Illustrator 16.0.0, SVG Export Plug-In . SVG Version: 6.00 Build 0)  -->
<!DOCTYPE svg PUBLIC "-//W3C//DTD SVG 1.1//EN" "http://www.w3.org/Graphics/SVG/1.1/DTD/svg11.dtd">
<svg version="1.1" id="Layer_1" xmlns="http://www.w3.org/2000/svg" xmlns:xlink="http://www.w3.org/1999/xlink" x="0px" y="0px"
	 width="3737.253px" height="1541.692px" viewBox="0 0 3737.253 1541.692" enable-background="new 0 0 3737.253 1541.692"
	 xml:space="preserve">
<path fill="#8058A4" d="M36.952,1498.837c0,0,233.174-12.299,362.168-300.285S505.616,436.59,982.592,505.586
	s758.962,157.492,890.955-121.494s-11.999-449.978,353.982-302.985S3583.461,307.596,3700.455,223.6v16.499
	c0,0-58.497,131.994-1112.944-50.997c0,0-253.062-48.882-383.98-103.495s-221.988-97.495-235.488,22.499
	s13.499,340.482-181.491,424.479s-568.47,67.497-797.959-11.999s-406.48,92.996-440.979,299.986
	c-34.498,206.988-157.218,565.052-378.594,668.756L36.952,1498.837z"/>
</svg>
