<?xml version="1.0" encoding="utf-8"?>
<!-- Generator: Adobe Illustrator 16.0.0, SVG Export Plug-In . SVG Version: 6.00 Build 0)  -->
<!DOCTYPE svg PUBLIC "-//W3C//DTD SVG 1.1//EN" "http://www.w3.org/Graphics/SVG/1.1/DTD/svg11.dtd">
<svg version="1.1" xmlns="http://www.w3.org/2000/svg" xmlns:xlink="http://www.w3.org/1999/xlink" x="0px" y="0px" width="10120px"
	 height="4704px" viewBox="0 0 10120 4704" enable-background="new 0 0 10120 4704" xml:space="preserve">
<g id="Layer_9">
	<path fill="#6FB62C" d="M1864.541,1934.786c50.383,2.867,107.782,9.468,143.459,24.214c75,31,188,467,588,348
		s329.637-155,490.818-38S3395,2481,3430,2484v10c0,0-55,11-348-213c0,0-150-98-222-50c0,0-253.387,86.558-335.883,103.057
		s-196.49,3-266.987-59.997s-179.655-212.451-218.989-265.487c-38.54-51.965-32.093-61.209-261.64-61.561L1864.541,1934.786z"/>
</g>
<g id="Layer_5">
	<path fill="#0098D8" d="M5601.963,2992.526c137.493,119.978,311.984,41.998,479.977-55.497s259.614-101.802,370.48-38.998
		s161.992,233.988,274.486,358.481s379.481-4.499,596.971-86.995s356.982-49.498,478.477-22.499s346.482,29.998,550.473,31.498
		s361.481-29.998,361.481-29.998v-25.499c-139.493,40.498-359.981,35.997-359.981,35.997c-511.475,19.499-506.975-45-701.965-73.498
		s-248.988,46.497-655.468,164.991s-304.484-239.987-526.474-370.48s-346.482,47.998-608.97,157.492
		s-311.984-193.49-353.982-269.986S5390,2625,5390,2625c-166-135-559.131-251.854-559.131-251.854l-5.082,16.312
		c0,0,563.188,171.089,669.682,387.079C5495.469,2776.536,5548.062,2945.492,5601.963,2992.526z"/>
</g>
<g id="Layer_7">
	<path fill="#991636" d="M4756.568,2362.965c0,0,134.432,17.035,196.432,349.035s-428,1048,208,1022s1012-56,1282,154
		s804,1086,1478,564s770-126,1260-230s506-204,870-114v-18c0,0-214-144-864,102c0,0-174,46-308-8s-400-206-808,88s-558,494-1038,140
		s-498-624-834-674s-970-22-1120-22s-282-244-194-452s237.574-768.932-59.213-892.466L4756.568,2362.965z"/>
</g>
<g id="Layer_8">
	<path fill="#86519B" d="M4719.32,1537.896c0,0,233.174-12.299,362.168-300.285s106.496-761.962,583.472-692.965
		s758.962,157.492,890.955-121.494s-11.999-449.978,353.982-302.985s1355.932,226.488,1472.926,142.493v16.499
		c0,0-58.497,131.994-1112.944-50.997c0,0-253.062-48.882-383.98-103.495s-221.988-97.495-235.488,22.499
		s13.499,340.482-181.491,424.479s-568.47,67.497-797.959-11.999s-406.48,92.996-440.979,299.985s-157.218,565.052-378.594,668.757
		L4719.32,1537.896z"/>
</g>
<g id="Layer_6">
	<path fill="#CDCE00" d="M4746.401,2336.699c0,0,107.266,72.13,153.266-26.301s64.828-645.127,573.303-459.103
		s1105.446,348.429,1504.426,171.261c398.979-177.166,652.467-504.925,1202.94-169.784
		c550.472,335.141,1283.936,562.504,1672.416,211.124l10.5,14.765c0,0-142.494,187.502-571.473,174.214
		s-946.453-293.802-1088.945-373.527c-142.492-79.725-479.467-205.762-718.464-102.369
		c-238.997,103.394-397.481,221.957-560.973,279.536s-406.479,109.755-875.956-21.441s-762.9-251.234-901.454-151.296
		s-205.489,268.703-233.988,432.582c0,0-18.541,104.309-131.999,46.641L4746.401,2336.699z"/>
</g>
<g id="Layer_4">
	<path fill="#E71E6C" d="M8736.933,2371.751c-8.032,2.591-340.015,29.796-557.767-41.456s-747.854-51.82-972.745,75.14
		c-224.892,126.958-1181.572-138.618-1440.376-220.235c-258.804-81.616-560.443,3.887-738.037,155.46
		c-177.593,151.573-429.257-120.481-582.754-208.575c-153.498-88.094-272.19-193.029-462.277-47.934
		s-273.082-27.206-356.078-145.096c-82.996-117.891-89.242-116.596-161.529-150.278c-72.286-33.684-322.513-29.549-322.513-29.549
		h-56.038V1768h56.183c0,0,250-21.331,360,47.335s212.666,266.666,229.333,290.666s99.334,116.001,240.667,2.667
		s252.001-94,300.667-66s281.335,159.999,396.668,260.666s257.333,136.001,389.333,27.334s388-195.999,526-167.999
		s517.333,123.332,776.667,189.332s716.695,136.006,860.001,64.001s471.333-148.001,736.665-114.667
		c265.334,33.334,272.666,51.334,409.334,76.667c136.666,25.333,368.597,4.667,368.597,4.667V2371.751z"/>
</g>
<g id="Layer_2">
	<path fill="#5F2264" d="M37.241,1933H1762c129,0,89,34,329-156s510-94,649-54s286,35.191,286,35.191h123.611
		c0,0,348.061,10.545,477.504-86.281c129.445-96.824,175.857-101.979,405.98-93.91c230.124,8.069,391.904,58.176,593.617-12.225
		c151.683-52.939,319.293-76.343,576.746-57.102c257.451,19.241,1085.895,127.857,1586.412,78.204s743.588-70.756,1052.814-50.896
		c309.229,19.861,209.99,153.927,1566.279,217.236v14.861c-230.706-3.254-379.295-42.079-623.961-50.746
		s-620.002-98-739.334-131.333c-119.334-33.333-219.334-43.333-524.668-47.333c-305.332-4-639.999,52.667-713.332,56.667
		s-386.668,17.333-604.668,12s-560.667-44.667-614.667-51.334s-325.786-42.336-533.333-44s-394.667,61.333-562.667,82.667
		s-372.804-5.13-536.137-13.797s-213.864,19.131-256.53,55.308c-42.666,36.176-102,61.823-208.667,98.49
		S3149.667,1768,3149.667,1768c-222.983,0-421.667-15-641.667-85s-425,112-516,193s-230,71-230,71H37.241V1933z"/>
</g>
<g id="Layer_10">
</g>
</svg>
