<?xml version="1.0" encoding="utf-8"?>
<!-- Generator: Adobe Illustrator 16.0.0, SVG Export Plug-In . SVG Version: 6.00 Build 0)  -->
<!DOCTYPE svg PUBLIC "-//W3C//DTD SVG 1.1//EN" "http://www.w3.org/Graphics/SVG/1.1/DTD/svg11.dtd">
<svg version="1.1" id="Layer_1" xmlns="http://www.w3.org/2000/svg" xmlns:xlink="http://www.w3.org/1999/xlink" x="0px" y="0px"
	 width="9371.724px" height="595.28px" viewBox="0 0 9371.724 595.28" enable-background="new 0 0 9371.724 595.28"
	 xml:space="preserve">
<path fill="#5E246A" d="M0,502.445h1724.759c129,0,89,34,329-156c240-190,510-94,649-54c139,40,286,35.191,286,35.191h123.611
	c0,0,348.061,10.545,477.504-86.281c129.445-96.824,175.857-101.979,405.98-93.91c230.124,8.069,391.904,58.176,593.617-12.225
	c151.683-52.939,319.293-76.343,576.746-57.102c257.451,19.241,1085.895,127.857,1586.412,78.204s743.588-70.756,1052.814-50.896
	c309.229,19.861,209.99,153.927,1566.279,217.236v14.861c-230.706-3.254-379.295-42.08-623.961-50.747s-620.002-98-739.334-131.333
	c-119.334-33.333-219.334-43.333-524.668-47.333c-305.332-4-639.999,52.667-713.332,56.667s-386.668,17.333-604.668,12
	s-560.667-44.667-614.667-51.334s-325.786-42.336-533.333-44s-394.667,61.333-562.667,82.667s-372.804-5.13-536.137-13.797
	s-213.864,19.131-256.53,55.308c-42.666,36.176-102,61.823-208.667,98.49c-106.667,36.668-341.334,33.334-341.334,33.334
	c-222.983,0-421.667-15-641.667-85c-220-70-425,112-516,193s-230,71-230,71H0V502.445z"/>
</svg>
